HIERARCHY
ROOT Hips
{
 OFFSET 0.000000 0.000000 0.000000
 CHANNELS 6 Xposition Yposition Zposition Yrotation Xrotation Zrotation
 JOINT Chest
 {
  OFFSET 0.000000 9.585900 0.002600
  CHANNELS 3 Yrotation Xrotation Zrotation
  JOINT Chest2
  {
   OFFSET 0.000000 9.601200 -0.005300
   CHANNELS 3 Yrotation Xrotation Zrotation
   JOINT Chest3
   {
    OFFSET 0.000000 9.561800 0.000000
    CHANNELS 3 Yrotation Xrotation Zrotation
    JOINT Chest4
    {
     OFFSET 0.000000 9.552100 0.000000
     CHANNELS 3 Yrotation Xrotation Zrotation
     JOINT Neck
     {
      OFFSET 0.000000 14.453000 0.000000
      CHANNELS 3 Yrotation Xrotation Zrotation
      JOINT Head
      {
       OFFSET 0.000000 8.936500 -0.011300
       CHANNELS 3 Yrotation Xrotation Zrotation
       End Site
       {
        OFFSET 0.000000 17.073600 -0.006000
       }
      }
     }
     JOINT RightCollar
     {
      OFFSET -2.921100 9.558500 0.000000
      CHANNELS 3 Yrotation Xrotation Zrotation
      JOINT RightShoulder
      {
       OFFSET -13.519700 0.000000 0.000000
       CHANNELS 3 Yrotation Xrotation Zrotation
       JOINT RightElbow
       {
        OFFSET 0.000000 -29.696600 0.000000
        CHANNELS 3 Yrotation Xrotation Zrotation
        JOINT RightWrist
        {
         OFFSET 0.000000 -24.004700 0.000000
         CHANNELS 3 Yrotation Xrotation Zrotation
         End Site
         {
          OFFSET 0.000000 -17.728500 0.000000
         }
        }
       }
      }
     }
     JOINT LeftCollar
     {
      OFFSET 2.921100 9.558500 0.000000
      CHANNELS 3 Yrotation Xrotation Zrotation
      JOINT LeftShoulder
      {
       OFFSET 13.519700 0.000000 0.000000
       CHANNELS 3 Yrotation Xrotation Zrotation
       JOINT LeftElbow
       {
        OFFSET 0.000000 -29.696600 0.000000
        CHANNELS 3 Yrotation Xrotation Zrotation
        JOINT LeftWrist
        {
         OFFSET 0.000000 -24.004700 0.000000
         CHANNELS 3 Yrotation Xrotation Zrotation
         End Site
         {
          OFFSET 0.000000 -17.728500 0.000000
         }
        }
       }
      }
     }
    }
   }
  }
 }
 JOINT RightHip
 {
  OFFSET -7.771700 -0.012900 -0.001300
  CHANNELS 3 Yrotation Xrotation Zrotation
  JOINT RightKnee
  {
   OFFSET 0.000000 -40.869800 0.001200
   CHANNELS 3 Yrotation Xrotation Zrotation
   JOINT RightAnkle
   {
    OFFSET 0.000000 -39.717900 0.002100
    CHANNELS 3 Yrotation Xrotation Zrotation
    JOINT RightToe
    {
     OFFSET 0.000000 -4.965400 11.033500
     CHANNELS 3 Yrotation Xrotation Zrotation
     End Site
     {
      OFFSET 0.000000 -1.423100 5.872300
     }
    }
   }
  }
 }
 JOINT LeftHip
 {
  OFFSET 7.771700 -0.012900 -0.001300
  CHANNELS 3 Yrotation Xrotation Zrotation
  JOINT LeftKnee
  {
   OFFSET 0.000000 -40.869800 0.001200
   CHANNELS 3 Yrotation Xrotation Zrotation
   JOINT LeftAnkle
   {
    OFFSET 0.000000 -39.717900 0.002100
    CHANNELS 3 Yrotation Xrotation Zrotation
    JOINT LeftToe
    {
     OFFSET 0.000000 -4.965400 11.033500
     CHANNELS 3 Yrotation Xrotation Zrotation
     End Site
     {
      OFFSET 0.000000 -1.423100 5.872300
     }
    }
   }
  }
 }
}
MOTION
Frames: 16
Frame Time: 0.008333
0.000000 85.388000 0.000000 0.000000 -5.767877 0.000000 0.000000 11.653817 0.000000 0.000000 -5.885947 0.000000 0.000000 -0.000000 0.000000 0.000000 -0.000000 0.000000 0.000000 12.528835 0.000000 0.000000 0.711642 0.000000 0.000000 -0.000000 0.000000 0.000000 0.000000 -90.000000 0.000000 -2.309062 0.000000 0.000000 2.309062 0.000000 0.000000 -0.000000 0.000000 0.000000 -0.000000 90.000000 0.000000 -2.309062 0.000000 0.000000 2.309062 0.000000 0.000000 8.520406 0.000000 0.000000 1.905762 0.000000 -0.000000 -4.658285 0.000000 0.000000 -0.000000 0.000000 0.000000 8.520406 0.000000 0.000000 1.905762 0.000000 -0.000000 -4.658285 0.000000 0.000000 -0.000000 0.000000
-0.129391 50.083341 38.997161 172.238531 -33.219622 -7.147520 6.341967 19.608248 8.167651 0.687616 2.687604 0.807794 1.130643 4.389174 1.344273 5.154428 16.858266 5.819606 -1.193503 13.529201 -0.974780 -1.868545 -10.674380 -1.368608 1.105193 -2.749107 -3.313197 12.934193 -19.484286 -7.537839 -6.619254 -84.422205 -11.442872 -6.438891 -9.236138 7.794782 -11.975107 -1.595251 -1.183238 3.217794 -12.366867 3.753796 -108.118486 -81.455728 118.855565 26.487580 -16.437224 3.715042 -1.578959 -47.259548 11.709175 -94.724573 82.498970 -82.149074 0.285108 -10.741791 -5.811047 -0.325217 1.099098 -0.133155 -11.528498 -51.529471 18.553923 -148.148015 83.367837 -155.718814 0.738111 -13.033472 6.818140 -0.364309 -0.630744 -0.169972
-0.135277 50.084613 38.988696 172.282892 -33.216317 -7.135601 6.313033 19.600439 8.125244 0.710787 2.662378 0.792827 1.142852 4.349078 1.326426 5.166323 16.826248 5.819297 -1.258910 13.488380 -0.838692 -2.046163 -10.748963 -1.085319 1.032540 -2.719846 -3.352427 12.579298 -18.911524 -7.414717 4.802298 -84.679533 -22.407091 -6.158386 -9.227419 7.334797 -11.893594 -1.677382 -1.155385 3.124173 -12.109246 3.791831 -105.447492 -80.471831 116.120676 26.158153 -16.641582 3.775511 -1.561195 -47.263438 11.658880 -94.809509 82.487383 -82.241087 0.251659 -10.719930 -5.802001 -0.304893 1.068194 -0.123899 -11.510456 -51.536091 18.487980 -148.214526 83.368947 -155.781960 0.695036 -13.036010 6.817032 -0.328403 -0.626806 -0.155513
-0.139575 50.084341 38.983695 172.311840 -33.186937 -7.128736 6.298518 19.564494 8.095059 0.733265 2.639244 0.778909 1.145139 4.323916 1.319297 5.186263 16.778909 5.807932 -1.326688 13.452786 -0.700854 -2.229092 -10.813279 -0.797607 0.955417 -2.662240 -3.404982 12.226911 -18.339720 -7.286216 17.002885 -84.728371 -34.155169 -5.874482 -9.216977 6.923656 -11.809228 -1.759815 -1.128980 3.071248 -11.751059 3.841757 -103.833807 -79.467809 114.379619 25.810114 -16.848307 3.820435 -1.550089 -47.300331 11.633052 -94.957424 82.471236 -82.399897 0.244625 -10.722398 -5.778997 -0.304648 1.059009 -0.123614 -11.506228 -51.567556 18.453178 -148.260122 83.371012 -155.826764 0.681818 -13.034070 6.822613 -0.314932 -0.625799 -0.150191
-0.145040 50.084374 38.979014 172.337955 -33.152258 -7.114727 6.346844 19.495863 8.051248 0.671504 2.652163 0.805978 1.166377 4.286990 1.298964 5.206014 16.732171 5.796329 -1.394793 13.426245 -0.558046 -2.414736 -10.860113 -0.500280 0.875327 -2.583373 -3.463736 11.884415 -17.776504 -7.152806 28.845099 -84.559023 -45.563478 -5.601465 -9.222978 6.604683 -11.712937 -1.839784 -1.100463 2.984665 -11.400912 3.897445 -102.484525 -78.488698 112.879578 25.484481 -17.061478 3.839244 -1.527256 -47.344177 11.596356 -95.111351 82.440352 -82.573491 0.279233 -10.719135 -5.749824 -0.333135 1.051669 -0.126646 -11.486695 -51.604579 18.402342 -148.298160 83.376679 -155.861915 0.681302 -13.034670 6.828492 -0.312536 -0.623396 -0.146291
-0.147314 50.084043 38.978068 172.349231 -33.099632 -7.115635 6.356414 19.434163 8.035263 0.664314 2.646828 0.807854 1.166171 4.274834 1.295868 5.215531 16.709272 5.790246 -1.445134 13.371772 -0.440444 -2.601206 -10.876765 -0.188919 0.814970 -2.538516 -3.556169 11.567414 -17.219204 -7.019643 39.242036 -84.205958 -55.555386 -5.349815 -9.256226 6.396141 -11.574489 -1.960143 -1.092056 2.858485 -11.099786 3.958081 -101.300303 -77.598635 111.512421 25.186771 -17.272370 3.833954 -1.522000 -47.403079 11.590983 -95.163831 82.425554 -82.620874 0.256929 -10.709990 -5.750209 -0.310797 1.043245 -0.119431 -11.486527 -51.657534 18.397592 -148.284509 83.379102 -155.843643 0.677624 -13.038427 6.841029 -0.313582 -0.617477 -0.148394
-0.152946 50.082584 38.980160 172.373384 -33.025008 -7.106828 6.325955 19.361668 8.002254 0.692494 2.623931 0.789407 1.174622 4.236276 1.282327 5.235906 16.653604 5.772347 -1.520557 13.402490 -0.265088 -2.789951 -10.855353 0.137411 0.706088 -2.426238 -3.593063 11.296350 -16.665603 -6.893297 47.720374 -83.739926 -63.670052 -5.126302 -9.318338 6.289202 -11.459709 -1.994534 -1.046628 2.719798 -10.814183 4.032261 -100.513143 -76.846461 110.488080 24.893746 -17.457877 3.795291 -1.516850 -47.483429 11.567149 -95.228406 82.408581 -82.698454 0.257142 -10.714155 -5.726034 -0.316954 1.050052 -0.125921 -11.482769 -51.736754 18.370174 -148.262187 83.386600 -155.815835 0.668969 -13.036242 6.850656 -0.308342 -0.610180 -0.145758
-0.159864 50.085631 38.977182 172.386068 -32.993492 -7.080889 6.330956 19.319876 7.959195 0.693304 2.608114 0.784199 1.183904 4.196207 1.267054 5.253764 16.600253 5.752433 -1.593343 13.451626 -0.084070 -2.978185 -10.800474 0.474032 0.592323 -2.310988 -3.624460 11.087093 -16.115306 -6.775524 54.395197 -83.233708 -70.034125 -4.926350 -9.404109 6.244465 -11.334883 -2.019480 -1.005118 2.572644 -10.534867 4.124602 -100.029304 -76.238063 109.715562 24.585299 -17.594369 3.708452 -1.484277 -47.520357 11.531475 -95.298877 82.376199 -82.810661 0.311612 -10.716464 -5.657438 -0.392385 1.057212 -0.157651 -11.411100 -51.772963 18.299101 -148.180013 83.391461 -155.717797 0.638470 -13.032920 6.865348 -0.287456 -0.608658 -0.136691
-0.165019 50.088805 38.977101 172.393466 -32.953901 -7.065908 6.349028 19.260788 7.933091 0.693689 2.593354 0.779535 1.170951 4.170942 1.255376 5.264223 16.561200 5.733544 -1.652814 13.489860 0.082979 -3.156083 -10.723865 0.812279 0.492090 -2.217797 -3.667583 10.939720 -15.564284 -6.665030 59.637949 -82.745863 -75.019800 -4.739572 -9.501048 6.221538 -11.194555 -2.068249 -0.983243 2.424676 -10.244068 4.237002 -99.763546 -75.741983 109.123671 24.268059 -17.669048 3.559499 -1.466590 -47.565678 11.514875 -95.327928 82.357167 -82.854201 0.306722 -10.705319 -5.643467 -0.380910 1.053158 -0.157118 -11.396540 -51.808045 18.280636 -148.232124 83.406759 -155.780611 0.617560 -13.027006 6.881944 -0.293119 -0.609295 -0.135101
-0.169428 50.093254 38.977218 172.397657 -32.923966 -7.055126 6.370921 19.177965 7.890017 0.677488 2.608451 0.793465 1.159135 4.175253 1.264007 5.272269 16.494245 5.689105 -1.706386 13.532060 0.248616 -3.321798 -10.639375 1.145066 0.393715 -2.125219 -3.708160 10.831377 -15.009922 -6.555724 63.843385 -82.313505 -79.003601 -4.564330 -9.597449 6.198558 -11.061915 -2.120056 -0.970033 2.280711 -9.925566 4.368137 -99.675256 -75.319027 108.689268 23.960898 -17.681504 3.346628 -1.457878 -47.596810 11.511355 -95.313422 82.340055 -82.861581 0.313240 -10.698160 -5.628626 -0.381349 1.052970 -0.156812 -11.363247 -51.834613 18.260530 -148.162026 83.417162 -155.714040 0.600086 -13.023471 6.900767 -0.294576 -0.608665 -0.130431
-0.172089 50.099327 38.976709 172.400091 -32.910461 -7.055248 6.378073 19.131800 7.868556 0.689986 2.563847 0.770046 1.150733 4.169880 1.265259 5.279489 16.472966 5.677064 -1.757143 13.570498 0.410567 -3.480510 -10.561254 1.469628 0.292322 -2.038194 -3.746820 10.729985 -14.451220 -6.436928 67.337078 -81.949797 -82.286334 -4.407804 -9.685285 6.163821 -10.954373 -2.175407 -0.960461 2.143243 -9.572723 4.514397 -99.708104 -74.948757 108.376887 23.659239 -17.641926 3.081873 -1.462066 -47.607066 11.527430 -95.260534 82.323092 -82.832348 0.321634 -10.689845 -5.613298 -0.390171 1.051757 -0.159052 -11.306287 -51.846888 18.241199 -147.976886 83.416804 -155.516692 0.575649 -13.023486 6.917820 -0.278970 -0.607094 -0.119875
-0.172595 50.106134 38.976506 172.414566 -32.905196 -7.077756 6.375658 19.109122 7.872834 0.698945 2.523118 0.741963 1.149431 4.161241 1.266251 5.284571 16.485368 5.690738 -1.808086 13.551551 0.527332 -3.633032 -10.499242 1.782868 0.196501 -2.008594 -3.822076 10.604477 -13.887971 -6.299994 70.360909 -81.657675 -85.084001 -4.274326 -9.757304 6.117550 -10.864595 -2.286238 -0.980928 2.007714 -9.187485 4.671125 -99.819575 -74.632215 108.157645 23.334892 -17.565891 2.783429 -1.479214 -47.603923 11.571439 -95.168907 82.291885 -82.745689 0.273399 -10.696261 -5.619793 -0.344532 1.058042 -0.137751 -11.327197 -51.843100 18.262655 -147.923195 83.420659 -155.462371 0.575259 -13.022365 6.911999 -0.282425 -0.609442 -0.113029
-0.177225 50.110587 38.978727 172.427390 -32.884805 -7.080381 6.366035 19.072720 7.854503 0.697369 2.516894 0.737612 1.148031 4.167647 1.273972 5.285141 16.380833 5.603775 -1.852624 13.595813 0.696112 -3.775569 -10.454746 2.080876 0.089306 -1.912793 -3.834728 10.431485 -13.324806 -6.137015 73.111144 -81.432037 -87.562211 -4.160582 -9.811188 6.056187 -10.797335 -2.313533 -0.954982 1.864956 -8.776129 4.829902 -100.008096 -74.372155 108.032789 22.984750 -17.465528 2.459530 -1.481022 -47.620986 11.580495 -95.105320 82.274595 -82.702665 0.268063 -10.698825 -5.599852 -0.346528 1.065542 -0.137063 -11.306800 -51.861027 18.253386 -147.815044 83.428672 -155.354779 0.558707 -13.018326 6.919371 -0.278554 -0.608693 -0.103679
-0.183604 50.114036 38.981762 172.435742 -32.863460 -7.075488 6.357714 19.018792 7.811022 0.696761 2.493062 0.720231 1.148924 4.109610 1.238095 5.293066 16.367076 5.603220 -1.889756 13.632495 0.857308 -3.905039 -10.424769 2.362697 -0.009556 -1.815793 -3.846080 10.207699 -12.768037 -5.940424 75.698333 -81.239529 -89.828486 -4.063643 -9.855472 5.973974 -10.727783 -2.334317 -0.927967 1.713203 -8.348816 4.979108 -100.276177 -74.157902 108.004347 22.635858 -17.347975 2.123981 -1.467876 -47.640024 11.580805 -95.012434 82.249241 -82.639596 0.283561 -10.704405 -5.560983 -0.366762 1.081701 -0.142902 -11.288863 -51.876484 18.260989 -147.620225 83.435181 -155.191024 0.543722 -13.009644 6.951988 -0.288954 -0.611249 -0.100733
-0.188789 50.118183 38.983876 172.449600 -32.855832 -7.085523 6.350238 18.977789 7.779054 0.694647 2.473002 0.704490 1.144918 4.084386 1.227092 5.304961 16.391314 5.634922 -1.940242 13.593266 0.955299 -4.023028 -10.407503 2.627551 -0.104696 -1.791456 -3.913060 9.944606 -12.217840 -5.709189 78.127786 -81.027081 -91.919329 -3.986778 -9.905065 5.880963 -10.661432 -2.427837 -0.943082 1.556813 -7.916377 5.109593 -100.597609 -73.980604 108.045533 22.303962 -17.221347 1.802999 -1.461967 -47.644765 11.585622 -94.950022 82.232926 -82.586142 0.284542 -10.706428 -5.548014 -0.370926 1.088802 -0.139361 -11.297353 -51.875459 18.291053 -147.361282 83.432818 -154.960716 0.524327 -13.003970 6.969687 -0.282186 -0.612025 -0.091035
-0.195047 50.120130 38.989016 172.490142 -32.828247 -7.112163 6.319938 18.905982 7.721675 0.686908 2.483183 0.728652 1.142891 4.077989 1.229144 5.308390 16.383838 5.636141 -1.991829 13.555259 1.053036 -4.131838 -10.400610 2.873404 -0.201641 -1.773024 -3.975401 9.662672 -11.670159 -5.450188 80.345385 -80.757649 -93.806906 -3.922872 -9.966744 5.773574 -10.597678 -2.513440 -0.953491 1.401083 -7.486531 5.214699 -100.944258 -73.838759 108.125673 21.991430 -17.091606 1.510359 -1.476532 -47.667146 11.585339 -94.890679 82.220777 -82.530626 0.290212 -10.707334 -5.530098 -0.376852 1.095152 -0.141641 -11.346943 -51.898227 18.321115 -147.179794 83.434403 -154.801591 0.527283 -12.994747 6.978953 -0.286635 -0.611566 -0.088232
